<svg width="106" height="224" viewBox="0 0 106 224" fill="none" xmlns="http://www.w3.org/2000/svg">
<path d="M0 184.702V185.064V186.412H102.84V185.064V184.702H0Z" fill="white"/>
<path d="M0 188.122V188.491V189.831H102.84V188.491V188.122H0Z" fill="white"/>
<path d="M0 191.541V191.911V193.251H102.84V191.911V191.541H0Z" fill="white"/>
<path d="M102.4 36.5998C102.81 36.3765 103.182 36.1839 103.326 36.1069C103.888 35.8219 104.381 35.5755 104.64 35.4291C105.452 34.9747 105.687 34.8592 105.786 34.528C105.87 34.2584 105.725 33.9735 105.422 33.8348C104.913 33.5961 103.311 34.5434 103.303 34.5049C103.265 34.1968 103.091 33.9581 102.703 33.9504C102.24 33.9504 101.655 34.1275 100.813 34.4202C100.038 34.6898 99.2637 34.9362 99.089 34.9824C99.5218 34.4587 99.6509 34.2584 99.6509 34.2584C99.6509 34.2584 100.061 33.7809 99.8483 33.4805C99.7876 33.3958 99.6433 33.3496 99.4687 33.4112C99.0966 33.5422 98.4284 34.1352 97.2895 35.2058C97.1452 35.3367 97.0845 35.4523 96.8643 35.5986C96.4315 35.7141 95.6418 35.7834 95.2242 35.6679C94.8901 35.5755 94.6699 35.4522 94.5256 35.329C94.5484 35.3059 94.9964 34.2892 95.6874 33.7809C96.1278 33.4574 97.3426 32.3946 97.4565 32.2867C97.8742 31.84 97.8134 31.4934 97.7754 31.2547C97.7375 30.9697 97.578 30.7155 97.3654 30.5615C96.6289 30.0455 95.3609 31.0621 95.2166 31.1776C94.9281 31.4164 93.5993 32.564 93.1817 32.9337C92.878 33.1956 92.0199 33.573 91.4429 33.8194L91.1088 33.9658C90.395 34.2815 89.4915 34.7514 88.8233 35.329C88.3677 35.7218 87.821 36.7462 87.6464 37.1236C87.2743 37.4394 85.5203 38.895 83.4019 40.189C81.7998 41.1671 80.0913 42.2377 78.6107 43.1696C77.5097 43.8628 76.5302 44.4713 75.8469 44.8949C75.7178 44.9642 72.6046 46.6432 70.0306 48.7151C69.2485 49.3466 68.4816 49.9782 67.7603 50.5867C67.1529 51.0873 66.591 51.5571 66.0443 51.9961C64.5257 53.2592 61.0937 55.4928 60.714 55.7624C60.2053 56.0859 59.6814 56.4171 59.0739 56.7868C57.449 57.788 54.0246 59.598 53.0754 60.0678C52.7034 60.2526 52.0352 60.6377 51.2911 61.1076C51.2683 61.123 51.2379 61.1384 51.2152 61.1461H51.1924C50.995 60.9458 50.8051 60.6532 50.7824 60.4837C50.6381 59.5595 51.9061 59.4516 53.2501 59.1051C54.1461 58.874 54.8826 58.4273 54.875 57.865C54.875 57.3413 54.5637 57.426 54.4726 57.0486C54.2524 56.1629 55.3837 56.0859 55.5356 55.6777C55.5887 55.539 55.5659 55.2464 55.2091 55.1231C54.8522 54.9999 54.6776 55.023 54.184 55.1693C53.9259 55.2464 53.736 54.7611 54.0398 54.4222C54.3511 54.0834 54.4877 53.9755 54.389 53.6135C54.2524 53.1052 53.941 53.0282 53.7512 53.1437C53.5614 53.2669 53.4019 53.5981 53.0223 53.5519C52.6426 53.5057 52.4756 53.2669 51.5189 53.2669C50.957 53.2669 50.5014 53.7676 49.9471 53.2901C49.613 53.0051 49.1726 52.0885 48.1628 51.7959C47.3959 51.5725 47.0238 51.1489 47.0238 51.1489C47.0238 51.1489 47.9654 50.8485 48.2615 50.5481C48.8082 49.9859 48.7702 49.8396 48.8613 49.4468C48.8993 49.285 49.0512 48.045 48.3754 48.1374C48.2083 48.1605 47.6161 48.7382 47.2364 48.7613C46.8568 48.7844 46.796 48.6612 46.8568 48.4455C46.9859 47.9834 46.8492 47.7138 46.5303 47.4828C46.0899 47.1593 44.8978 47.4596 43.8727 47.5598C42.8553 47.6676 42.0732 47.5598 41.1317 48.1759C40.3116 48.7074 39.5827 49.7394 39.5827 49.7394C39.5827 49.7394 38.8614 49.7934 38.4058 50.4557C38.178 50.7946 38.178 51.0796 38.178 51.0796C38.178 51.0796 37.5022 51.1104 37.1833 51.6957C37.0087 52.0192 37.0163 52.0654 37.0163 52.0654C37.0163 52.0654 35.7178 52.4274 35.2699 53.2361C34.7839 54.1219 34.4422 54.9845 34.875 55.8548C35.2319 56.5711 35.4141 56.6789 35.4141 56.6789C35.4141 56.6789 35.118 57.3798 35.2926 58.0961C35.4901 58.9048 35.8393 59.1667 35.8925 59.236C35.8393 59.4208 35.528 60.4375 35.9077 61.6159C36.4999 63.4413 37.4035 63.4336 37.4035 63.4336C37.4035 63.4336 37.5402 65.6132 37.6389 66.938C37.7376 68.255 37.7604 69.187 37.7604 69.187C37.7376 69.187 35.4217 70.3885 35.4217 70.3885C35.4217 70.3885 35.118 69.6953 34.8826 69.3179C33.9942 67.8699 32.7566 66.6453 32.2403 65.9213C31.7163 65.1973 31.0254 64.327 30.585 63.9881C30.4863 63.8803 30.3116 63.7185 30.0003 63.5106C29.2486 63.0023 28.7551 61.8778 28.7551 61.8778L33.85 61.5851L34.6093 59.3592L33.7133 58.6121L29.1651 57.1333C29.9472 51.9037 37.5857 2.26438 37.5857 2.26438L36.8112 0V0.015404L36.7885 0.0308079L35.1863 2.20277L25.0117 57.1102L19.3701 58.8278L19.4916 61.0614L20.2585 61.6313L20.2813 61.6544L22.2858 61.7237C22.1036 61.8239 21.8454 62.0087 21.8151 62.3322C21.7847 62.6557 21.7543 63.2641 21.9821 63.4336C22.2023 63.5953 22.2858 63.5876 22.2858 63.5876C22.2858 63.5876 21.9973 64.0189 22.1643 64.4733C22.3238 64.9355 22.5516 65.0972 22.5516 65.0972C22.5516 65.0972 22.301 65.3822 22.4529 65.8443C22.6047 66.3141 22.8022 66.4296 22.8022 66.4296C22.8022 66.4296 22.5744 67.1151 22.8477 67.4617C23.1287 67.8083 23.645 67.97 23.645 67.97L23.5235 69.2409L22.8629 69.3795L22.711 71.1972L23.5159 71.5361L26.6746 71.7825L26.8416 69.8647C26.8416 69.8647 26.5531 69.6645 26.4999 69.5644C26.4468 69.4565 26.4468 69.264 26.462 69.0868C26.6062 69.056 26.872 68.9944 27.1226 68.9636C27.2972 68.9405 27.3883 68.979 27.4567 69.1562C27.6009 69.7184 27.6769 71.0277 27.7908 72.029C27.9274 73.269 28.2084 74.432 28.5273 75.5642C28.5425 75.6258 29.0816 77.1046 29.8864 77.8055C29.6662 78.0982 29.3549 78.5449 29.1195 78.9608C27.935 81.0634 28.5197 82.8734 29.0284 83.9825C29.1955 84.383 29.3853 84.7835 29.5903 85.184C29.2106 86.6628 28.5501 89.6126 28.3375 90.6755C27.8971 92.9168 28.0261 95.3044 28.2691 97.1375C28.3299 97.8307 28.4362 98.5392 28.6108 99.1708C28.7171 99.6868 28.8082 100.041 28.8386 100.172C28.8614 100.827 29.0968 107.543 30.0079 111.864C31.6708 119.766 35.0193 126.544 38.5652 133.722C42.8097 142.31 47.1985 151.19 49.1651 162.936C50.6381 171.762 47.6085 184.493 47.5781 184.617L47.449 185.156H48.345C48.345 185.156 48.2843 185.171 48.2539 185.171C48.2539 185.171 63.5082 185.256 77.7375 185.333L100.425 185.472C100.425 185.472 100.463 185.464 100.486 185.464C101.116 185.464 101.549 185.464 101.731 185.464C101.731 185.464 97.2971 174.127 98.7397 170.63C99.3092 169.243 104.761 169.305 103.713 167.349C102.559 165.192 92.1187 152.16 88.1551 144.474C88.0412 144.258 78.3981 124.58 71.124 115.938C68.5348 112.865 62.2098 103.438 60.2432 99.5328C59.3397 98.1079 60.1066 97.8538 60.7064 97.6304C61.2683 97.4224 64.0853 95.9128 64.3359 95.2505C64.5864 94.5881 63.8195 93.2403 63.7436 92.5471C63.5766 90.9605 65.4976 90.3366 66.5302 91.2608C67.9653 92.5394 70.0078 94.6266 72.9235 95.4969C75.4444 96.2517 81.7086 97.0142 85.8544 96.0207C87.821 95.5509 89.7876 94.3185 90.228 93.918C91.2303 93.0092 91.4429 92.1081 90.7595 91.3071C90.5925 91.1145 88.2083 92.5009 87.1908 91.6691C85.5279 90.3058 87.1073 88.9657 87.2515 88.8655C88.3677 88.157 89.9319 88.2109 91.8985 87.2327C94.0093 86.1775 94.9508 84.9221 95.2242 84.5139C96.067 83.2508 96.0442 82.8503 96.2796 82.6577C96.6441 82.3574 97.8058 82.9119 98.064 82.0416C98.2158 81.5255 98.1627 80.7014 97.5477 79.9312C97.0237 79.2766 96.5302 79.292 96.2796 78.5526C95.8468 77.2817 97.1908 75.9878 97.7147 75.3717C98.1855 74.8248 98.269 74.2318 98.064 73.8852C98.064 73.8852 97.9501 73.2228 94.2523 71.667C92.3389 70.8583 88.6031 69.187 84.4497 68.1626C80.6229 67.2152 76.4467 66.861 73.6677 66.8995C69.2258 66.9688 66.6062 67.8468 66.6062 67.8468L65.49 65.4438C65.49 65.4438 69.78 61.0305 70.5242 59.8444C71.2683 58.6506 71.4353 58.2578 71.4353 58.2578C71.4353 58.2578 74.351 56.0089 75.528 55.385C76.7049 54.7688 80.0989 52.9127 81.5796 51.2798C83.0602 49.647 85.8848 46.5123 86.9326 45.4571C87.9729 44.402 89.1498 43.3853 89.5446 43.1157C89.9395 42.8539 90.6076 42.0606 91.0025 41.8218C91.9744 41.2441 93.7891 41.0747 95.1331 40.3199C96.4846 39.5728 97.8666 39.2416 98.3297 39.1261C99.4839 38.8257 102.544 37.9169 104.04 37.4009C105.391 36.931 105.961 37.1159 105.999 36.569C106.075 35.4291 102.855 36.4843 102.407 36.5767M79.2181 145.098C80.8962 147.724 82.9691 151.329 85.1559 155.334C85.9304 156.759 87.9653 160.278 89.1042 162.55C89.5522 163.452 91.5644 163.482 91.8225 163.452C95.6418 162.92 96.9098 162.782 99.8483 164.276C99.8559 164.276 98.3981 164.068 97.5704 164.137C95.5659 164.291 95.1179 164.152 92.1414 165.485C91.7162 165.677 90.8962 166.047 90.0685 166.432C88.8081 167.01 87.3199 166.594 86.9099 165.015C86.3024 162.712 85.247 159.185 83.6828 155.773C81.2075 150.397 81.4885 150.72 80.4027 148.194C80.2204 147.77 78.9828 144.713 79.2333 145.098M73.3867 153.454C74.6092 155.742 75.2014 156.42 77.2516 161.033C78.3601 163.536 79.8104 165.962 80.919 167.41C81.2683 167.865 81.572 168.219 81.7998 168.496L82.8856 169.636L80.3419 170.329C80.2584 170.36 80.1673 170.383 80.0762 170.414C78.2311 171.03 78.2918 172.186 78.3298 173.264C78.3677 174.304 78.679 175.759 76.0291 180.126C76.9858 163.351 73.2197 155.796 71.1772 149.881C71.1772 149.881 72.5515 151.899 73.3791 153.439M19.9624 60.8534C19.9396 60.5299 19.8864 59.5133 19.8713 59.1359C20.0763 59.0511 25.4141 57.5338 25.4141 57.5338L35.4445 2.21817L36.462 0.862623L36.0216 1.97171L26.1962 58.7354L28.626 57.4337L33.645 59.0819L32.992 61.0691L25.7406 60.5684L19.9472 60.8534H19.9624ZM22.4681 64.3039C22.2631 63.5106 23.2122 63.2795 23.4552 63.2564C23.6222 63.241 23.8576 63.2564 24.0018 63.4644C24.0626 63.5491 24.1081 63.7262 24.017 63.8957C23.9107 64.0805 23.7133 64.0266 23.5007 64.1036C23.0983 64.2577 22.8249 64.5118 22.6883 64.6582C22.582 64.5581 22.4832 64.3732 22.4605 64.3039M22.7414 65.7904C22.4984 64.9586 23.4779 64.6274 23.6753 64.6197C23.8348 64.6043 24.0854 64.5427 24.2145 64.7891C24.2676 64.8969 24.3815 65.3283 23.8804 65.567C23.402 65.7981 23.2501 65.8366 23.0831 66.0445C23.0451 66.0908 22.9768 66.1986 22.9768 66.2294C22.8857 66.1601 22.8173 66.0676 22.7414 65.7981M23.197 67.4463C23.1211 67.3539 22.9996 67.1844 22.9844 66.9996C22.9388 66.4604 23.1742 66.3141 23.1742 66.3141C23.1742 66.3141 23.4855 65.9752 24.1917 66.006C24.6624 66.0291 24.7232 66.2448 24.7232 66.4373C24.7232 66.7146 24.4574 66.9842 24.1081 67.0458C23.7741 67.0997 23.2046 67.2769 23.197 67.4463ZM25.8697 71.2049C25.8318 71.2819 23.2046 70.9661 23.2046 70.9661L23.2881 69.6953L23.8728 69.5798L24.0018 67.9931C24.1917 67.9161 24.4726 67.8083 24.6093 67.7698C25.4445 67.5387 25.9001 67.97 25.9001 67.97L25.8014 69.4565L25.976 69.5721C25.976 69.5721 25.9153 71.0816 25.8621 71.1972M60.6001 114.798C60.6001 114.798 60.6153 114.821 60.6153 114.837C60.7672 115.145 60.9266 115.445 61.0937 115.745C63.6753 120.32 65.657 124.695 67.1756 128.808C65.3609 125.72 63.1362 122.901 60.4558 120.729C51.1468 113.196 47.3655 110.554 44.2144 106.149C42.3921 103.599 41.6632 101.235 41.6632 101.235C41.5493 103.307 42.1871 105.941 43.9183 109.183C46.5607 114.128 51.4126 116.824 56.1886 122.816C60.6229 128.384 60.8431 129.039 63.2577 133.306C64.1233 134.831 64.67 137.118 65.6343 137.118C66.181 137.118 65.8772 132.174 66.2873 132.266C66.5227 132.32 66.6821 132.667 66.7732 132.859C67.282 133.922 67.5173 135.147 67.7603 136.294C68.1248 138.02 68.4133 139.768 68.6639 141.509C68.9296 143.349 69.1574 145.198 69.3397 147.046C69.3624 147.27 69.3852 147.493 69.4004 147.716C69.4156 147.894 69.3852 148.202 69.4611 148.363C67.2744 143.58 64.9357 139.183 63.7132 137.111C61.3139 133.052 56.5303 127.422 55.6723 126.382C52.4452 122.469 47.1757 118.564 43.7588 115.268C41.3063 112.896 44.5865 117.671 46.1506 119.365C48.3526 121.761 53.4247 126.574 57.7679 133.352C58.998 135.27 58.9296 135.979 57.1833 133.968C54.1536 130.464 46.0671 124.68 48.3298 127.206C48.3298 127.206 49.7497 128.392 50.9038 129.786C61.0861 142.063 61.6479 156.289 61.6479 161.025C61.6935 168.751 60.5014 179.31 55.2243 182.745C52.43 184.563 48.5272 184.278 48.5272 184.278C49.0891 181.728 51.3291 170.738 50.0003 162.782C48.0185 150.905 43.5994 141.963 39.3245 133.321C35.8014 126.197 32.4756 119.466 30.8355 111.671C30.2433 108.837 29.9396 104.955 29.7953 102.483C29.7649 100.449 29.7346 97.8538 30.4027 95.7049C30.6002 95.0656 31.1469 93.7255 31.7619 92.6241C32.3845 91.5227 33.1514 90.8295 33.5842 90.3828C34.0474 89.913 36.0975 88.2725 39.727 87.9413C43.4551 87.6024 45.5887 88.8809 46.7049 89.2814C47.7907 89.6742 52.263 92.0234 56.1202 99.5174C57.039 101.297 57.4718 103.977 58.102 106.934C51.2607 99.2863 45.2091 94.488 44.9813 94.85C44.7231 95.2505 51.9896 102.914 52.5515 103.63C52.878 104.046 57.449 108.798 60.6001 114.783M45.5508 83.5897C47.1833 84.1519 47.4946 84.899 47.4946 84.899C47.4946 84.899 39.8257 83.8284 37.6996 85.0839C37.6996 85.0839 40.6685 85.7 43.0527 87.3174C42.878 87.2866 41.4582 86.8014 39.0436 87.1326C36.7125 87.4561 35.1636 88.2494 34.2676 88.8347C33.5766 89.2814 34.1613 86.863 40.9342 79.7156C43.8879 76.5963 46.0064 76.6733 46.0064 76.6733C46.0064 76.6733 44.5409 79.0609 44.184 80.6629C43.8651 82.057 44.1385 83.1044 45.566 83.5974M53.364 86.2237C53.3032 85.5614 53.2577 84.6525 53.2197 84.3137C53.083 83.089 54.0929 80.9094 54.3966 80.6629C54.5713 81.0403 54.8826 84.6834 54.8674 85.2225C54.6852 91.4303 57.3123 95.7049 57.3123 95.7049C54.5029 91.8154 52.6806 90.6986 52.6199 90.5369C52.7869 90.2519 53.2729 89.3045 53.3564 88.4881C53.4475 87.6101 53.4171 86.8861 53.3564 86.2237M80.8506 68.3937C80.5317 68.1626 80.061 67.9623 79.5143 67.8006C82.0351 68.101 84.3358 68.5323 86.2189 69.0252C88.0488 69.5027 91.9061 70.9969 95.7329 72.8608C95.9759 72.9763 96.5757 73.3075 96.9934 73.5309C96.0746 73.6387 94.9812 74.2934 94.9812 74.2934C94.9812 74.2934 88.9144 70.9661 83.6145 70.3885C79.2333 69.9032 73.5917 70.2883 73.5917 70.2883C73.5917 70.2883 76.2113 69.0945 80.8582 68.3937M65.7937 74.4551C67.2136 74.3627 68.7474 74.2626 69.7649 74.2395C73.6828 74.1547 74.6168 75.0944 74.6168 75.0944C74.6168 75.0944 66.2265 74.8556 62.2022 77.6976C61.7315 78.0288 64.0473 77.559 65.8089 77.274C69.9015 76.604 74.799 77.5513 78.6639 79.0686C82.8172 80.7014 85.4292 79.2689 91.2151 79.6617C96.3555 80.0082 96.1657 82.3419 96.1657 82.3419C96.1657 82.3419 93.9789 80.6937 90.7671 82.6346C88.8157 83.8207 86.7352 85.6307 86.7352 85.6307C86.7352 85.6307 85.8696 84.8836 80.0989 83.8053C76.4315 83.1199 60.7899 81.7951 50.2964 72.2909C50.0762 72.0906 49.8788 71.9058 49.6966 71.7363C47.0466 72.7453 44.1764 75.3871 41.648 77.5975C39.3853 79.5769 37.4566 82.1725 35.1712 84.2597C35.1712 84.2597 31.6556 87.3559 30.6154 89.2891C30.3724 89.7359 29.446 91.6151 28.8917 93.8641C28.8917 92.8706 28.9677 91.8462 29.1575 90.8604C29.3701 89.7821 29.5827 88.8347 29.7725 88.0106C30.0003 86.9939 30.2813 85.8926 30.5242 84.9683C31.1317 83.7437 32.6655 80.6167 32.3997 80.5782C31.8606 80.5089 30.9874 80.455 30.1901 80.6706C29.8333 80.7707 29.5371 80.8863 29.2942 81.0018C29.3625 80.5012 29.5144 79.9697 29.8333 79.3998C30.1901 78.7682 31.0937 77.5128 31.0937 77.5128C31.0937 77.5128 29.7573 76.7041 29.3018 75.1714C28.8917 73.7927 28.7019 72.0136 28.5576 70.7119C28.4438 69.6183 28.3754 69.0868 28.2463 68.8173C28.0261 68.3705 27.73 67.9777 27.0694 68.0779C27.0087 68.0856 26.9327 68.101 26.8644 68.1087C26.9327 68.0163 26.9935 67.9238 26.9935 67.8545C27.0087 67.3154 26.4012 66.9688 26.3481 66.7069C26.2797 66.3911 26.3025 65.7596 26.386 65.413C26.667 64.2577 25.3838 64.5658 24.8371 63.5799C24.3132 62.6403 24.4271 61.7237 23.4855 62.2475C23.1362 62.4477 22.4908 62.7943 22.2251 62.9869C21.9669 62.2783 22.2403 62.0318 22.787 61.6005C22.9009 61.5235 23.0375 61.4388 23.1211 61.3925C23.8652 60.9689 24.9738 60.8303 25.4293 60.9227C26.1507 61.0768 26.5987 62.001 26.5835 62.4939C26.5683 62.9869 26.5987 63.603 26.834 64.1344C27.0618 64.6659 27.0846 65.2127 27.1453 65.5054C27.2061 65.7981 27.4567 65.9136 27.4567 65.9136C28.1324 64.9432 28.6032 64.4733 29.4232 64.2962C29.8788 64.327 30.2509 64.2269 31.2 65.6132C31.3822 65.8828 32.301 67.169 32.954 68.2704C33.607 69.3641 34.503 71.6285 34.503 71.6285L38.4969 69.7107C38.4969 69.7107 38.0413 65.9444 38.0261 65.0664C37.9882 62.7635 37.7148 61.7006 37.7148 61.7006C37.7148 61.7006 37.2137 61.8316 36.9555 61.6698C36.8416 61.6005 36.5834 61.5081 36.4696 60.9381C36.181 59.5518 36.8416 58.8894 36.8416 58.8894C36.4468 58.5428 36.2418 57.7957 36.3784 56.8407C36.4771 56.1629 36.0064 56.6327 35.7254 57.2258C35.6267 57.0871 35.6343 56.8484 35.7482 56.548C36.257 55.2618 36.9935 54.1373 37.4263 52.8125C37.4263 52.8125 37.1605 52.8741 36.9099 52.982C36.667 53.0898 36.3481 53.421 36.0443 53.8677C35.8393 54.1758 35.3458 54.5378 35.0724 54.9383C35.0648 54.8998 35.0648 53.9832 36.014 53.0205C36.4696 52.5584 37.4415 52.2811 37.4415 52.2811C37.4415 52.2811 37.487 51.8036 37.8667 51.6264C38.1476 51.4955 38.55 51.3877 38.55 51.3877C38.55 51.3877 38.5804 50.7792 38.9297 50.5096C39.279 50.2401 39.4764 50.1862 39.7573 50.1245C40.509 49.3004 41.367 48.1143 42.544 48.0065C43.4323 47.9218 44.3283 47.8062 44.7383 47.7292C44.8446 47.7061 45.6723 47.5906 45.7786 47.8216C45.0648 47.8216 44.184 47.8602 43.3564 48.1528C42.673 48.3993 42.6503 48.6612 42.4604 48.8537C42.2706 49.0463 41.8682 49.2619 41.6784 49.3389C41.4885 49.4082 41.2759 49.5315 41.1772 49.7009C41.0861 49.8704 41.1317 49.9628 40.8887 50.086C40.6533 50.2093 40.342 50.7715 40.342 50.7715C40.342 50.7715 41.5721 50.4172 42.2402 50.4403C43.1438 50.4634 43.6905 50.9641 43.6601 51.7188C43.6449 52.1271 43.159 52.774 42.0276 52.6277C42.0276 52.6277 41.8834 53.1283 41.9973 53.4672C42.1036 53.7753 42.3162 54.5378 42.4225 54.9537C42.4377 55.0307 42.4604 55.1077 42.4832 55.1847C42.4832 55.2155 42.4984 55.231 42.4984 55.231C42.5364 55.3542 42.5743 55.4774 42.6123 55.5775C42.6882 55.8163 42.1567 55.2001 41.6935 55.6854L41.2304 56.0397C41.0026 56.2476 40.6001 56.5634 40.6761 56.7251C40.752 56.8869 40.8507 56.9639 41.0709 56.9947C41.2759 57.0255 42.3921 57.0178 42.7186 56.9947C42.8021 56.9947 42.878 57.0024 42.954 57.0101C42.954 57.0101 42.9919 57.2104 43.0451 57.4876C42.6427 57.2566 41.891 57.2489 41.8682 57.2643C41.6556 57.2643 41.4657 57.3336 41.2607 57.4414C40.9191 57.6186 40.5242 58.1731 40.4103 58.7277C40.1825 59.7751 40.4103 60.1217 41.5796 60.0601C41.5796 60.0601 41.5796 60.0601 41.5872 60.0601C42.1339 60.0909 42.4073 60.0601 42.8325 60.0601C42.8705 60.0601 42.9008 60.0601 42.9464 60.0524C42.6806 60.4375 42.3541 60.63 42.3541 60.63C42.3541 60.63 42.0884 60.6377 41.9821 60.6455C41.2456 60.6917 40.9342 60.5684 40.8887 60.7148C40.5014 61.8778 41.7163 60.8226 41.9365 61.3155C42.0276 61.5312 41.8834 62.0164 41.7011 62.3091C41.5493 62.5555 40.6229 62.2475 40.3648 62.4092C39.8029 62.7635 40.0914 62.9252 40.9874 63.4413C41.6252 63.811 43.3868 64.5118 43.7664 64.7814C44.1461 65.051 46.0747 66.0599 46.2645 66.0137C46.872 65.852 48.5272 64.2192 48.5728 64.173C49.651 63.0716 52.5439 61.2693 53.4247 60.8303C54.1461 60.476 56.2645 59.3592 57.9805 58.3965C57.6312 59.0434 57.2668 60.1602 57.1073 62.0857C56.9782 63.8341 56.8871 65.3437 56.3632 64.7429C55.0648 63.2333 55.1407 61.4927 54.8902 61.9317C54.2372 63.1024 54.1537 63.7262 54.3207 64.6582C54.6168 66.3603 55.8469 66.8841 55.2774 66.8918C53.1817 66.9149 52.5212 66.445 51.3291 65.1819C50.5698 64.3732 49.1802 64.7506 49.1802 64.7506C49.1802 64.7506 50.3572 65.8135 51.9137 67.1613C53.9031 68.8866 57.3275 69.341 59.5978 69.7261C63.4171 70.3731 64.5485 71.7594 64.5485 71.7594C64.5485 71.7594 54.7839 71.097 53.9638 70.4193L54.6776 71.3666C50.6837 71.2511 47.0466 66.4373 47.0466 66.4373C47.0466 66.4373 47.4946 68.178 48.2235 69.1253C49.2562 70.4655 50.5773 71.3589 52.1795 72.2986C55.4596 74.2241 62.1643 74.6708 65.7861 74.432M94.4953 37.2776C93.6904 37.3932 93.2652 37.5626 92.8172 37.8014C91.5796 38.4483 90.6228 39.0491 90.3191 39.0953C88.7398 39.3263 88.755 39.9502 87.4869 41.1286C86.963 41.6138 79.4839 47.4828 77.0845 49.0771C74.6927 50.6637 70.2508 54.3298 69.7725 54.6379C68.755 55.2926 67.8514 57.141 66.4315 58.7123C64.2675 61.1153 61.6479 63.3643 61.4202 63.603C60.957 64.0882 59.1498 64.0805 58.793 61.7083C58.5424 60.0447 58.6335 58.6583 58.717 57.9729C59.0056 57.8034 59.2789 57.6494 59.5067 57.503C61.1848 56.471 62.2706 55.7624 63.941 54.6456C65.1407 53.8446 66.6062 52.6354 68.2994 51.2259C69.0283 50.6252 69.78 49.9936 70.5621 49.362C73.0678 47.3364 76.2113 45.642 76.2645 45.6189C76.9706 45.1799 77.9501 44.5714 79.0587 43.8782C80.5393 42.954 82.2402 41.8834 83.8423 40.9053C86.2872 39.4111 88.1931 37.7628 88.2766 37.6935L88.3905 37.5395C88.6562 36.931 89.1118 36.2224 89.3092 36.0145C89.7648 35.537 90.8354 34.9978 91.4429 34.736L91.777 34.5896C92.4755 34.2892 93.3411 33.9196 93.7436 33.5576C94.1536 33.1956 95.4672 32.0634 95.7557 31.8246C96.1278 31.5165 96.6972 31.1776 96.8643 31.247C96.8719 31.2547 97.1073 31.3702 96.8263 31.6475C96.8111 31.6552 95.5811 32.7334 95.171 33.0338C94.9736 33.1802 94.799 33.3496 94.6471 33.5191C94.4877 33.6654 94.3358 33.8117 94.2295 33.9427C93.5234 34.8438 93.0678 35.044 93.1437 35.098C93.7739 35.537 94.6092 35.9991 94.6092 35.9991C95.2242 36.3996 95.9152 36.3226 96.3859 36.1608C95.8316 36.777 94.9888 37.2083 94.4953 37.2776ZM98.2082 36.2379C98.4208 35.9991 98.4816 35.8219 98.7018 35.5601C98.7018 35.5601 100.038 35.1134 100.722 34.89C102.468 34.3201 102.605 34.3201 102.673 34.5049C102.756 34.7129 102.316 34.8977 102.081 34.9901C101.504 35.2135 98.5803 36.1146 98.2082 36.2379ZM45.3913 68.4168C43.4627 72.6914 40.1066 70.4963 37.0618 73.0765C35.0952 74.7478 34.8067 76.8735 34.8067 76.8735C34.8067 76.8735 35.6495 76.6579 36.3936 76.4884C36.0368 76.8119 33.3412 82.1417 33.2653 82.2803C33.1894 82.4113 37.0314 78.0751 44.1764 73.3614C46.7429 71.667 48.7322 70.9353 48.7322 70.9353C47.244 69.4257 46.629 66.9842 46.629 66.9842C46.629 66.9842 45.8165 67.4771 45.3913 68.4245M39.2866 54.8613C39.2486 55.3773 39.4764 55.2926 39.9699 55.3696C39.932 55.4235 39.894 55.4697 39.8484 55.5236C39.6586 55.5313 39.4688 55.5082 39.2866 55.5544C39.1195 55.5929 38.9297 55.6315 38.7778 55.8471C39.2334 55.7778 39.5371 55.8779 39.5219 56.2168C40.6077 55.4928 41.1241 54.9152 40.8507 53.6983C41.1696 53.2361 41.3746 52.8973 41.4126 52.3196C41.0785 52.6585 40.9722 52.8818 40.4863 52.8356C38.4513 52.3812 37.8059 53.7599 37.8059 53.7599C38.626 53.4518 39.3169 53.0744 40.0231 53.6058C39.5523 53.652 38.6108 53.8061 38.1096 54.4068C37.4415 55.2078 37.692 56.2091 37.7224 56.8561C37.7224 56.9639 38.0717 56.4017 38.4285 56.3092C38.3602 56.0705 38.3678 55.978 38.4589 55.7085C38.5804 55.2772 38.9449 54.9691 39.279 54.869M38.3906 55.4158C38.3526 55.5544 38.3222 55.6315 38.3222 55.6315C38.3222 55.6315 38.2539 55.0384 38.55 54.6995C38.8462 54.3683 39.4005 54.1681 39.5751 54.1373C39.7497 54.1065 39.7801 54.1604 39.7801 54.1604C39.7649 54.222 39.7421 54.2759 39.727 54.3375C39.727 54.3375 39.0967 54.5763 38.8462 54.8382C38.588 55.1 38.4361 55.2772 38.3906 55.4158Z" fill="white"/>
<path d="M0.0605469 219.453H5.36805V200.529H8.45081V219.453H13.7583V195.993H0.0605469V219.453Z" fill="white"/>
<path d="M27.7142 197.287C27.1068 196.732 26.3778 196.316 25.5426 196.031C24.7074 195.746 23.7962 195.608 22.8091 195.608C21.822 195.608 20.9109 195.746 20.0756 196.031C19.2404 196.316 18.5191 196.732 17.904 197.287C17.289 197.841 16.8182 198.55 16.469 199.405C16.1273 200.267 15.9526 201.261 15.9526 202.393V213.06C15.9526 215.171 16.5677 216.827 17.7825 218.036C19.005 219.245 20.6755 219.846 22.8015 219.846C24.9276 219.846 26.6208 219.245 27.8357 218.036C29.0506 216.827 29.6504 215.171 29.6504 213.06V202.393C29.6504 201.261 29.4758 200.267 29.1341 199.405C28.7924 198.55 28.314 197.841 27.699 197.287M24.3353 213.515C24.3353 213.669 24.3201 213.869 24.3049 214.116C24.2822 214.362 24.2214 214.601 24.1303 214.832C24.0316 215.063 23.8797 215.255 23.6823 215.417C23.4773 215.579 23.1812 215.664 22.8015 215.664C22.4219 215.664 22.1182 215.579 21.898 215.417C21.6854 215.255 21.5259 215.055 21.4348 214.832C21.3361 214.601 21.2829 214.362 21.2753 214.116C21.2677 213.869 21.2601 213.661 21.2601 213.515V201.931C21.2601 201.731 21.2601 201.515 21.2753 201.261C21.2829 201.014 21.3437 200.776 21.4348 200.56C21.5335 200.344 21.6854 200.16 21.898 200.005C22.1106 199.851 22.4143 199.774 22.8015 199.774C23.1888 199.774 23.4849 199.851 23.6823 200.005C23.8873 200.16 24.0392 200.344 24.1303 200.56C24.229 200.776 24.2822 201.014 24.3049 201.261C24.3277 201.515 24.3353 201.731 24.3353 201.931V213.515Z" fill="white"/>
<path d="M38.1621 205.258H37.1674V200.529H44.2744V195.993H31.8599V219.445H39.4149C40.5918 219.445 41.5789 219.253 42.3762 218.86C43.1658 218.467 43.8037 217.943 44.2744 217.296C44.7452 216.642 45.0793 215.879 45.2691 214.994C45.4589 214.116 45.5576 213.184 45.5576 212.205C45.5576 210.01 44.9122 208.301 43.629 207.084C42.3458 205.867 40.5159 205.258 38.1621 205.258ZM40.1894 213.754C40.1438 214.154 40.0603 214.485 39.9312 214.732C39.8021 214.978 39.6123 215.171 39.3542 215.286C39.096 215.402 38.7467 215.463 38.2911 215.463H37.1674V209.071H38.3898C38.7999 209.071 39.1264 209.163 39.3693 209.348C39.6123 209.533 39.8021 209.772 39.9312 210.064C40.0603 210.357 40.1438 210.696 40.1894 211.073C40.2349 211.451 40.2501 211.851 40.2501 212.267C40.2501 212.852 40.2274 213.345 40.1894 213.754Z" fill="white"/>
<path d="M53.0067 209.695H58.7318V205.158H53.0067V200.529H59.5367V195.993H47.6992V219.453H59.7949V214.917H53.0067V209.695Z" fill="white"/>
<path d="M77.2972 195.993H64.5258C64.4802 197.557 64.4498 199.236 64.427 201.015C64.4043 202.802 64.3511 204.558 64.2524 206.283C64.1537 208.008 63.9942 209.633 63.774 211.143C63.5463 212.653 63.2273 213.908 62.7945 214.909H61.481V223.751H65.9532V219.446H74.3283V223.751H78.7778V214.909H77.2972V195.985V195.993ZM71.9897 214.917H67.9654C68.2235 214.131 68.4285 213.153 68.5956 211.983C68.755 210.812 68.8917 209.549 68.998 208.201C69.1043 206.853 69.1879 205.467 69.2562 204.042C69.3169 202.617 69.3701 201.261 69.4156 199.983H71.9897V214.925V214.917Z" fill="white"/>
<path d="M84.3198 195.993L80.0449 219.445H85.3828L85.9295 215.271H89.6577L90.1436 219.445H95.7396L91.3965 195.993H84.3198ZM86.4762 211.096L87.8277 199.644H87.8885L89.1413 211.096H86.4686H86.4762Z" fill="white"/>
<path d="M97.9946 195.993V205.158L99.088 212.668H101.692L102.786 205.158V195.993H97.9946Z" fill="white"/>
<path d="M102.786 214.031H97.9946V219.445H102.786V214.031Z" fill="white"/>
<path d="M0 169.645C0 168.813 0.030372 167.919 0.098709 166.972C0.167046 166.025 0.356871 165.093 0.68337 164.168C1.00987 163.244 1.53379 162.389 2.24753 161.596C2.96127 160.803 3.97114 160.14 5.27713 159.617C4.32042 159.216 3.53074 158.739 2.90053 158.161C2.27031 157.591 1.76158 156.959 1.37433 156.282C0.98709 155.604 0.713742 154.918 0.561882 154.233C0.410022 153.547 0.334092 152.924 0.334092 152.354V149.119C0.334092 148.287 0.402429 147.193 0.53151 145.853C0.660591 144.513 1.11617 143.204 1.89825 141.925C2.68033 140.647 3.92558 139.545 5.6416 138.621C7.35762 137.697 9.77219 137.235 12.9005 137.235C16.0288 137.235 18.4434 137.697 20.1594 138.621C21.8754 139.545 23.1207 140.647 23.9028 141.925C24.6848 143.204 25.1404 144.513 25.2695 145.853C25.3986 147.193 25.4669 148.287 25.4669 149.119V152.354C25.4669 152.924 25.3758 153.555 25.2088 154.233C25.0341 154.918 24.7532 155.588 24.3659 156.251C23.9787 156.913 23.4396 157.537 22.7714 158.13C22.0956 158.723 21.2832 159.216 20.3341 159.617C21.6325 160.102 22.6423 160.664 23.3637 161.296C24.0774 161.935 24.6241 162.682 24.9886 163.545C25.3606 164.4 25.5884 165.339 25.6719 166.348C25.7555 167.357 25.801 168.458 25.801 169.652V173.611C25.801 177.262 24.7076 180.158 22.5132 182.291C20.3189 184.425 17.1222 185.495 12.9081 185.495C8.69398 185.495 5.49733 184.432 3.31055 182.291C1.11617 180.158 0.022779 177.262 0.022779 173.611V169.652L0 169.645ZM10.4176 152.677C10.4176 153.956 10.653 154.78 11.1313 155.149C11.6097 155.527 12.1944 155.712 12.8929 155.712C13.5459 155.712 14.1154 155.527 14.6165 155.149C15.1177 154.78 15.3682 153.948 15.3682 152.677V148.318C15.3682 147.039 15.1177 146.215 14.6165 145.845C14.1154 145.468 13.5383 145.283 12.8929 145.283C12.2019 145.283 11.6097 145.468 11.1313 145.845C10.653 146.223 10.4176 147.047 10.4176 148.318V152.677ZM10.4176 174.389C10.4176 175.675 10.653 176.499 11.1313 176.877C11.6097 177.254 12.1944 177.439 12.8929 177.439C13.5459 177.439 14.1154 177.246 14.6165 176.877C15.1177 176.499 15.3682 175.675 15.3682 174.389V166.826C15.3682 165.547 15.1177 164.715 14.6165 164.338C14.1154 163.961 13.5383 163.776 12.8929 163.776C12.2019 163.776 11.6097 163.968 11.1313 164.338C10.653 164.715 10.4176 165.539 10.4176 166.826V174.389Z" fill="white"/>
<path d="M29.1572 149.104C29.1572 145.453 30.2506 142.557 32.445 140.424C34.6318 138.29 37.836 137.22 42.0425 137.22C46.2491 137.22 49.4533 138.29 51.6477 140.424C53.8345 142.557 54.9355 145.453 54.9355 149.104V173.604C54.9355 177.255 53.8421 180.151 51.6477 182.284C49.4533 184.417 46.2567 185.488 42.0425 185.488C37.8284 185.488 34.6318 184.425 32.445 182.284C30.2506 180.151 29.1572 177.255 29.1572 173.604V149.104ZM39.5748 174.39C39.5748 175.668 39.8102 176.5 40.2886 176.87C40.7669 177.247 41.3516 177.432 42.0501 177.432C42.7031 177.432 43.2726 177.247 43.7738 176.87C44.2749 176.492 44.5255 175.668 44.5255 174.39V148.318C44.5255 147.04 44.2749 146.216 43.7738 145.838C43.2726 145.461 42.6955 145.276 42.0501 145.276C41.3592 145.276 40.7669 145.461 40.2886 145.838C39.8102 146.216 39.5748 147.04 39.5748 148.318V174.39Z" fill="white"/>
</svg>
