<svg width="115" height="86" viewBox="0 0 115 86" fill="none" xmlns="http://www.w3.org/2000/svg">
<g clip-path="url(#clip0_230_33)">
<path d="M115 52.5917V55.0826H108.675V73.3986H106.087V55.0826H99.9781L99.7625 54.8629V52.5917H115Z" fill="#979694"/>
<path d="M0 52.5917H10.4937V54.9361H2.5875V73.3986H0V52.5917Z" fill="#979694"/>
<path d="M28.3188 70.0284C23.9114 75.8617 14.8494 74.943 11.661 68.3258C10.0784 65.0406 10.1258 60.2389 11.9069 57.0358C14.835 51.7696 21.8845 50.4978 26.5837 54.1404C27.2594 54.6635 27.6331 55.4592 28.3174 55.9618L28.313 37.4202C28.4812 34.2537 28.8722 31.2045 29.8943 28.1889C32.7219 19.8456 39.5327 13.1698 47.7869 10.5323C50.7395 16.307 58.6774 17.4866 63.1997 12.8314C63.5433 12.4768 64.5783 10.8195 64.6861 10.7507C65.0412 10.5221 66.9027 11.3339 67.3728 11.5375C76.8243 15.6476 83.4742 25.465 83.9572 35.9534L83.95 61.2368H95.45V52.5916H98.0375V73.3986H95.45V63.5812H83.95V73.3986H81.3625V37.8656C81.3625 36.793 79.9998 36.012 79.0237 36.2128C78.5652 36.308 77.625 37.13 77.625 37.5726V73.3986H74.8938V69.8819L73.8732 71.1127C64.8586 78.9021 53.8402 69.2826 57.822 58.4146C60.2917 51.6758 69.3192 49.8325 74.1075 55.0738C74.3849 55.3786 74.5675 55.8739 74.8923 56.1068L74.8995 36.2465C74.3475 29.1106 69.4169 22.8348 62.9611 20.2823C51.267 15.6594 38.4359 23.9045 37.3693 36.5395L37.3765 55.9603C37.6165 56.016 37.6683 55.8826 37.8049 55.7391C40.756 52.64 43.0532 51.4678 47.4649 52.3455C58.847 54.6108 58.1153 75.214 43.631 73.8367C41.1341 73.5993 38.9505 71.9098 37.3765 70.0284V85.9999H34.789V38.0121C34.789 36.9484 33.639 35.9959 32.5939 36.2142C32.2 36.2963 31.0515 37.2121 31.0515 37.5726V73.3986H28.5359L28.3202 73.1788V70.0284H28.3188ZM19.665 54.5405C10.8604 55.5618 11.3045 70.3435 19.3718 71.4556C31.5359 73.1348 31.7242 53.1397 19.665 54.5405ZM49.831 56.3076C48.8693 55.4357 47.2075 54.6269 45.9267 54.4994C34.4799 53.355 33.9466 72.9546 46.3436 71.4791C52.9633 70.6907 54.4813 60.5246 49.831 56.3076ZM66.2372 54.5375C56.8474 55.6233 57.5115 72.7494 68.77 71.4791C77.6365 70.4783 77.6236 53.2202 66.2372 54.5375Z" fill="#979694"/>
<path d="M60.1809 9.90084C55.0174 15.0425 47.1141 7.43917 52.1741 1.81251C57.1032 -3.66762 65.5845 4.51888 60.1809 9.90084Z" fill="#F4C31C"/>
</g>
<defs>
<clipPath id="clip0_230_33">
<rect width="115" height="86" fill="white"/>
</clipPath>
</defs>
</svg>
