<?xml version="1.0" encoding="UTF-8"?>
<svg id="Layer_1" xmlns="http://www.w3.org/2000/svg" version="1.1" viewBox="0 0 212 86">
  <!-- Generator: Adobe Illustrator 29.1.0, SVG Export Plug-In . SVG Version: 2.1.0 Build 142)  -->
  <defs>
    <style>
      .st0 {
        fill: #e0cdaf;
      }

      .st1 {
        fill: #58595b;
      }

      .st2 {
        fill: #cda673;
      }

      .st3 {
        fill: #414042;
      }
    </style>
  </defs>
  <path class="st2" d="M63.9,18.9h-29.6c-3,0-5.7,1.9-6.7,4.7l-11.5,31.3c-1,2.8-3.7,4.7-6.7,4.7h29.6c3,0,5.7-1.9,6.7-4.7l11.5-31.3c1-2.8,3.7-4.7,6.7-4.7h0Z"/>
  <path class="st0" d="M25.6,22.8c1.3-3.7,4.9-6.1,8.8-6.1h3l1.7-4.7c.8-2.3,3-3.8,5.5-3.8h-24.2c-2.5,0-4.6,1.5-5.5,3.8l-9.4,25.6c-.8,2.3-3,3.8-5.5,3.8h18.7l6.8-18.6Z"/>
  <path class="st1" d="M76.7,26.7h-1.2v-6.5h-4v6.5h-1.2v-7.6h6.4v7.6h0Z"/>
  <path class="st1" d="M83,19.3c.4.1.7.3.9.5.3.2.5.5.6.8.2.3.2.7.2,1.1s0,.8-.2,1.1c-.2.3-.4.6-.6.8-.3.2-.6.4-1,.5-.4.1-.8.2-1.2.2h-1.9v2.3h-1.2v-7.6h3.2c.4,0,.8,0,1.2.2h0ZM81.7,23.4c.6,0,1-.2,1.4-.4.3-.3.5-.7.5-1.2s-.2-.9-.5-1.2c-.3-.3-.8-.4-1.3-.4h-2v3.3h1.9Z"/>
  <path class="st1" d="M87.4,24.9l4.4-5.9h1v7.6h-1.1v-5.7l-4.3,5.7h-1.1v-7.6h1.1v5.9h0Z"/>
  <path class="st1" d="M104.5,26.7h-1.2v-6.5h-4v6.5h-1.2v-7.6h6.4v7.6h0Z"/>
  <path class="st1" d="M111.7,19.2c.5.2.9.5,1.3.8.4.4.6.8.8,1.3.2.5.3,1,.3,1.6s-.1,1.1-.3,1.5c-.2.5-.5.9-.8,1.3-.4.4-.8.6-1.3.8-.5.2-1,.3-1.6.3s-1.1-.1-1.6-.3c-.5-.2-.9-.5-1.3-.8-.3-.4-.6-.8-.8-1.2-.2-.5-.3-1-.3-1.6s.1-1.1.3-1.6c.2-.5.5-.9.8-1.2.3-.4.8-.6,1.3-.8.5-.2,1-.3,1.6-.3s1.1.1,1.6.3h0ZM108.9,20.1c-.4.2-.7.4-.9.6-.2.3-.4.6-.6.9-.1.4-.2.8-.2,1.2s0,.8.2,1.2c.1.4.3.7.6.9.2.3.5.5.9.6.4.2.8.2,1.2.2s.9,0,1.2-.2c.4-.2.7-.4.9-.6.2-.3.4-.6.6-.9.1-.4.2-.8.2-1.2s0-.8-.2-1.2c-.1-.4-.3-.7-.6-.9-.2-.2-.5-.5-.9-.6-.4-.1-.8-.2-1.2-.2s-.9,0-1.2.2h0Z"/>
  <path class="st1" d="M122.4,25.7h1.1v2.6h-1.1v-1.6h-6.2v1.6h-1.1v-2.1c0,0,0-.5,0-.5h.3c.2,0,.4,0,.6-.3.2-.2.4-.4.5-.8.1-.3.2-.6.3-1,0-.4.1-.8.2-1.2,0-.4,0-.8.1-1.3,0-.4,0-.9,0-1.3v-.8h5.3v6.6h0ZM117.9,23.5c-.2,1-.4,1.7-.8,2.1h4.1v-5.6h-3c0,1.4-.1,2.5-.3,3.5Z"/>
  <path class="st1" d="M131.9,25.7h1.1v2.6h-1.1v-1.6h-6.2v1.6h-1.1v-2.1c0,0,0-.5,0-.5h.3c.2,0,.4,0,.6-.3.2-.2.4-.4.5-.8.1-.3.2-.6.3-1,0-.4.1-.8.2-1.2,0-.4,0-.8.1-1.3,0-.4,0-.9,0-1.3v-.8h5.3v6.6h0ZM127.4,23.5c-.2,1-.4,1.7-.8,2.1h4.1v-5.6h-3c0,1.4-.1,2.5-.3,3.5Z"/>
  <path class="st1" d="M140,20.1h-4.3v2.1h3.8v1h-3.8v2.4h4.6v1h-5.7v-7.6h5.5v1Z"/>
  <path class="st1" d="M146.2,19.3c.4.1.7.3.9.5.3.2.5.5.6.8.2.3.2.7.2,1.1s0,.8-.2,1.1c-.2.3-.4.6-.6.8-.3.2-.6.4-1,.5-.4.1-.8.2-1.2.2h-1.9v2.3h-1.2v-7.6h3.2c.4,0,.8,0,1.2.2h0ZM144.9,23.4c.6,0,1-.2,1.4-.4.3-.3.5-.7.5-1.2s-.2-.9-.5-1.2c-.3-.3-.8-.4-1.3-.4h-2v3.3h1.9Z"/>
  <path class="st1" d="M152.3,22.1h1.2c0,0,0-3,0-3h1.1v3.1h1.2c0,0,2.1-3.1,2.1-3.1h1.4l-2.5,3.5,2.8,4.1h-1.4l-2.4-3.6h-1.3v3.6h-1.1v-3.6h-1.3l-2.3,3.6h-1.4l2.8-4.1-2.5-3.5h1.4l2.1,3h0Z"/>
  <path class="st1" d="M161.9,22.2h1.2c0,0,2.5-3.1,2.5-3.1h1.4l-3,3.5,3.3,4.1h-1.5l-2.7-3.5h-1.2v3.5h-1.1v-7.6h1.1v3.1Z"/>
  <path class="st1" d="M174.2,20.1h-4.3v2.1h3.8v1h-3.8v2.4h4.6v1h-5.7v-7.6h5.5v1Z"/>
  <path class="st3" d="M77.1,35.8h.9c.6,0,1.2,0,1.7.3.5.2,1,.4,1.3.7.4.3.7.7.9,1.2.2.5.3,1,.3,1.6s-.1,1.2-.3,1.6c-.2.5-.5.9-.9,1.2-.4.3-.8.6-1.3.8-.5.2-1,.3-1.6.3h-.9v1.3h-2.3v-1.3h-.9c-.6,0-1.2,0-1.7-.3-.5-.2-.9-.4-1.3-.7-.4-.3-.7-.7-.9-1.2-.2-.5-.3-1-.3-1.6s.1-1.2.3-1.6c.2-.5.5-.9.9-1.2.4-.3.8-.6,1.3-.8.5-.2,1-.3,1.6-.3h.9v-1.3h2.3v1.3ZM74.1,37.8c-.6,0-1.1.2-1.5.5s-.5.8-.5,1.4.2,1.1.5,1.4c.3.3.8.5,1.4.5h.8v-3.8h-.8ZM78,41.5c.6,0,1.1-.2,1.5-.5.3-.3.5-.8.5-1.4s-.2-1.1-.5-1.4c-.4-.3-.8-.5-1.4-.5h-.8v3.8h.8Z"/>
  <path class="st3" d="M91.3,34.9c.7.3,1.2.7,1.7,1.1.5.5.9,1,1.1,1.7.3.7.4,1.3.4,2.1s-.1,1.4-.4,2c-.3.7-.6,1.2-1.1,1.7-.5.5-1,.8-1.7,1.1-.7.3-1.4.4-2.2.4s-1.5-.1-2.2-.4c-.6-.3-1.2-.6-1.7-1.1-.5-.5-.9-1-1.1-1.7-.3-.7-.4-1.3-.4-2.1s.1-1.4.4-2.1c.3-.7.6-1.2,1.1-1.7.5-.5,1-.8,1.7-1.1.7-.3,1.4-.4,2.2-.4s1.5.1,2.2.4ZM87.8,36.8c-.4.2-.7.4-1,.7-.3.3-.5.6-.6,1-.1.4-.2.8-.2,1.3s0,.9.2,1.3c.1.4.3.7.6,1,.3.3.6.5,1,.7.4.1.8.2,1.3.2s.9,0,1.3-.3c.4-.2.7-.4,1-.7.3-.3.5-.6.6-1,.1-.4.2-.8.2-1.3s0-.9-.2-1.3c-.1-.4-.3-.8-.6-1-.3-.3-.6-.5-1-.7-.4-.2-.8-.2-1.3-.2s-.9,0-1.3.3Z"/>
  <path class="st3" d="M98.7,38.7h4.4v-4h2.3v10.1h-2.3v-4.1h-4.4v4.1h-2.3v-10.1h2.3v4Z"/>
  <path class="st3" d="M117.3,42.8h1.5v.6l-.2,3.5h-2.1v-2.1h-7v2.1h-2.2v-3.5c-.1,0-.1-.6-.1-.6h.4c.2,0,.4,0,.6-.2.2-.2.4-.4.5-.7.3-.6.5-1.4.6-2.3.1-1,.2-2,.2-3.2v-1.6h7.7v8.1h0ZM111.6,40.4c-.2,1-.4,1.8-.7,2.4h4.1v-6.1h-3.2c0,1.4-.1,2.7-.3,3.7Z"/>
  <path class="st3" d="M130.9,44.8h-2.5l-.8-2h-4.4l-.8,2h-2.5l4.2-10.1h2.5l4.2,10.1h0ZM126.9,40.8l-1.4-3.8h-.2l-1.4,3.8h2.9Z"/>
  <path class="st3" d="M79.2,62.9h-2.3v-8h-4.3v8h-2.3v-10.1h8.9v10.1Z"/>
  <path class="st3" d="M87.8,53.1c.5.2.9.4,1.3.7.3.3.6.7.8,1.1.2.5.3,1,.3,1.5s-.1,1.1-.3,1.6c-.2.5-.5.8-.9,1.1-.4.3-.8.6-1.3.7-.5.2-1.1.3-1.7.3h-2.1v2.8h-2.3v-10.1h4.5c.6,0,1.2,0,1.7.3ZM86,58.1c.6,0,1.1-.2,1.4-.5.3-.3.5-.7.5-1.2s-.2-.9-.5-1.2c-.3-.3-.8-.5-1.4-.5h-2.2v3.3h2.1Z"/>
  <path class="st3" d="M99.7,54.8h-5.4v1.9h4.8v2h-4.8v2.2h5.6v2h-7.9v-10.1h7.6v2h0Z"/>
  <path class="st3" d="M107,56.5c.2-.2.3-.4.3-.7s-.1-.7-.4-.9c-.3-.2-.7-.3-1.3-.3-1,0-1.8.3-2.7,1l-1.2-1.6c.6-.5,1.2-.8,1.8-1.1.6-.2,1.4-.3,2.2-.3s1.2,0,1.6.2c.5.1.9.3,1.2.6.3.3.6.6.8.9.2.4.3.7.3,1.2s0,.8-.3,1.2c-.2.4-.5.6-.8.8h0c.5.3.9.6,1.1,1,.3.4.4.9.4,1.4s0,.9-.3,1.3c-.2.4-.5.8-.8,1-.4.3-.8.5-1.4.7-.5.2-1.2.3-1.9.3s-.9,0-1.3,0c-.4,0-.8-.1-1.1-.3-.3-.1-.7-.3-1-.5-.3-.2-.6-.4-1-.7l1.2-1.7c.5.4,1,.7,1.6.9.5.2,1.1.3,1.7.3s1.2-.1,1.5-.4c.3-.3.5-.6.5-1,0-.7-.5-1.1-1.4-1.1h-2.6v-2h2.3c.3,0,.6,0,.8-.3h0Z"/>
  <path class="st3" d="M114.2,59.5l4.9-6.7h2v10.1h-2.3v-6.4l-4.7,6.4h-2.2v-10.1h2.2v6.7Z"/>
  <path class="st3" d="M133,60.9h1.5v.6l-.2,3.5h-2.1v-2.1h-7v2.1h-2.2v-3.5c-.1,0-.1-.6-.1-.6h.4c.2,0,.4,0,.6-.2.2-.2.4-.4.5-.7.3-.6.5-1.4.6-2.3.1-1,.2-2,.2-3.2v-1.6h7.7v8.1h0ZM127.3,58.5c-.2,1-.4,1.8-.7,2.4h4.1v-6.1h-3.2c0,1.4-.1,2.7-.3,3.7Z"/>
  <path class="st3" d="M143.9,54.8h-5.4v1.9h4.8v2h-4.8v2.2h5.6v2h-7.9v-10.1h7.6v2h0Z"/>
  <path class="st3" d="M148.5,56.8h4.4v-4h2.3v10.1h-2.3v-4.1h-4.4v4.1h-2.3v-10.1h2.3v4Z"/>
  <path class="st3" d="M166.3,54.9h-3.5v8.1h-2.3v-8.1h-3.5v-2.1h9.2v2.1h0Z"/>
  <path class="st3" d="M174.2,54.9c-.5-.2-1-.3-1.5-.3s-.9,0-1.4.2c-.4.2-.7.4-1,.7-.3.3-.5.6-.6,1-.2.4-.2.8-.2,1.3s0,.9.2,1.3c.2.4.4.7.7,1,.3.3.6.5,1,.7.4.2.8.2,1.3.2s1.1-.1,1.6-.3c.5-.2.9-.5,1.3-.9l1.3,1.6c-1.2,1.1-2.6,1.6-4.4,1.6s-1.5-.1-2.2-.4c-.7-.3-1.2-.6-1.7-1.1-.5-.5-.8-1-1.1-1.7-.3-.7-.4-1.4-.4-2.2s.1-1.4.4-2.1c.2-.7.6-1.2,1.1-1.7.5-.5,1.1-.9,1.8-1.1.7-.3,1.5-.4,2.3-.4s1.5.1,2.2.4c.7.2,1.2.6,1.8,1l-1.3,1.6c-.3-.3-.8-.6-1.2-.7h0Z"/>
  <path class="st3" d="M181,56.7h1.1c0-.1,2.9-3.8,2.9-3.8h2.8l-3.8,4.7,4.1,5.4h-2.9l-3.1-4.3h-1.1v4.3h-2.2v-10.1h2.2v3.8Z"/>
  <path class="st3" d="M192,59.5l4.9-6.7h2v10.1h-2.3v-6.4l-4.7,6.4h-2.2v-10.1h2.2v6.7Z"/>
  <path class="st3" d="M205.7,56.4h.2l2-3.6h2.8l-3.2,5,3.6,5.1h-2.9l-2.3-3.9h-.1l-2.2,3.9h-2.9l3.6-5.3-3.2-4.9h2.8l2.1,3.6h0Z"/>
  <path class="st3" d="M78,73h-5.4v8.1h-2.3v-10.1h7.7v2.1Z"/>
  <path class="st3" d="M86,71.2c.5.2.9.4,1.3.7.3.3.6.7.8,1.1.2.5.3,1,.3,1.5s-.1,1.1-.3,1.6c-.2.5-.5.8-.9,1.1-.4.3-.8.6-1.3.7-.5.2-1.1.3-1.7.3h-2.1v2.8h-2.3v-10.1h4.5c.6,0,1.2,0,1.7.3ZM84.1,76.3c.6,0,1.1-.2,1.4-.5s.5-.7.5-1.2-.2-.9-.5-1.2c-.3-.3-.8-.5-1.4-.5h-2.2v3.3h2.1Z"/>
  <path class="st3" d="M99.9,81h-2.5l-.8-2h-4.4l-.8,2h-2.5l4.2-10.1h2.5l4.2,10.1h0ZM95.9,77l-1.3-3.8h-.2l-1.4,3.8h2.9Z"/>
  <path class="st3" d="M104,74.9h4.4v-4h2.3v10.1h-2.3v-4.1h-4.4v4.1h-2.3v-10.1h2.3v4Z"/>
  <path class="st3" d="M121.8,73h-3.5v8.1h-2.3v-8.1h-3.5v-2.1h9.2v2.1h0Z"/>
  <path class="st3" d="M130.3,71.1c.7.3,1.2.7,1.7,1.1.5.5.9,1,1.1,1.7.3.7.4,1.3.4,2.1s-.1,1.4-.4,2c-.3.7-.6,1.2-1.1,1.7-.5.5-1,.8-1.7,1.1-.7.3-1.4.4-2.2.4s-1.5-.1-2.2-.4c-.7-.3-1.2-.6-1.7-1.1-.5-.5-.9-1-1.1-1.7-.3-.7-.4-1.3-.4-2.1s.1-1.4.4-2.1c.3-.7.6-1.2,1.1-1.7.5-.5,1-.8,1.7-1.1.7-.3,1.4-.4,2.2-.4s1.5.1,2.2.4ZM126.8,73c-.4.2-.7.4-1,.7-.3.3-.5.6-.6,1-.1.4-.2.8-.2,1.3s0,.9.2,1.3c.1.4.3.7.6,1,.3.3.6.5,1,.7.4.2.8.2,1.3.2s.9,0,1.3-.3c.4-.2.7-.4,1-.7.3-.3.5-.6.6-1,.1-.4.2-.8.2-1.3s0-.9-.2-1.3c-.1-.4-.3-.8-.6-1-.3-.3-.6-.5-1-.7-.4-.2-.8-.2-1.3-.2s-.9,0-1.3.3Z"/>
  <path class="st3" d="M142.5,71.7c.6.5.9,1.2.9,2s0,.8-.3,1.1c-.2.3-.4.6-.7.7h0c.5.3.9.6,1.2,1,.3.4.5.9.5,1.4s0,.8-.2,1.2c-.2.4-.4.7-.7,1-.3.3-.7.5-1.2.7-.5.2-1,.2-1.7.2h-4.9v-10.1h4.5c1.1,0,2,.2,2.6.7h0ZM140,74.9c.4,0,.7,0,.9-.3.2-.2.3-.5.3-.8,0-.7-.4-1-1.3-1h-2.2v2.1h2.3ZM140.3,79.1c1,0,1.5-.4,1.5-1.2s-.1-.7-.4-.9c-.3-.2-.6-.3-1.1-.3h-2.7v2.4h2.7Z"/>
</svg>